<mxfile host="app.diagrams.net" modified="2023-11-06T07:34:05.125Z" agent="Mozilla/5.0 (Windows NT 10.0; Win64; x64) AppleWebKit/537.36 (KHTML, like Gecko) Chrome/119.0.0.0 Safari/537.36" version="22.0.8" etag="obj1s21I035Pj_QN-L65" type="github">
  <diagram name="Trang-1" id="jfligojUQqBpQXSdJGDr">
    <mxGraphModel>
      <root>
        <mxCell id="0" />
        <mxCell id="1" parent="0" />
      </root>
    </mxGraphModel>
  </diagram>
</mxfile>
